<?xml version="1.0" encoding="UTF-8"?>
<svg xmlns="http://www.w3.org/2000/svg" xmlns:xlink="http://www.w3.org/1999/xlink" width="100pt" height="141pt" viewBox="0 0 100 141" version="1.1">
<g id="surface1">
<path style=" stroke:none;fill-rule:nonzero;fill:rgb(14.901961%,30.196078%,89.411765%);fill-opacity:1;" d="M 49.9375 140.445312 L 9.242188 129.164062 L 0.171875 27.601562 L 99.828125 27.601562 L 90.746094 129.148438 Z M 49.9375 140.445312 "/>
<path style=" stroke:none;fill-rule:nonzero;fill:rgb(16.078431%,39.607843%,94.509804%);fill-opacity:1;" d="M 82.976562 122.679688 L 90.734375 35.90625 L 50 35.90625 L 50 131.808594 Z M 82.976562 122.679688 "/>
<path style=" stroke:none;fill-rule:nonzero;fill:rgb(92.156863%,92.156863%,92.156863%);fill-opacity:1;" d="M 20.964844 73.574219 L 22.082031 86.03125 L 50 86.03125 L 50 73.574219 Z M 20.964844 73.574219 "/>
<path style=" stroke:none;fill-rule:nonzero;fill:rgb(92.156863%,92.156863%,92.156863%);fill-opacity:1;" d="M 18.71875 48.359375 L 19.851562 60.816406 L 50 60.816406 L 50 48.359375 Z M 18.71875 48.359375 "/>
<path style=" stroke:none;fill-rule:nonzero;fill:rgb(92.156863%,92.156863%,92.156863%);fill-opacity:1;" d="M 50 105.925781 L 49.945312 105.941406 L 36.050781 102.191406 L 35.164062 92.257812 L 22.640625 92.257812 L 24.386719 111.816406 L 49.941406 118.898438 L 50 118.882812 Z M 50 105.925781 "/>
<path style=" stroke:none;fill-rule:nonzero;fill:rgb(0%,0%,0%);fill-opacity:1;" d="M 23.625 0 L 38.734375 0 L 38.734375 6.308594 L 29.945312 6.308594 L 29.945312 12.617188 L 38.734375 12.617188 L 38.734375 18.925781 L 23.625 18.925781 Z M 23.625 0 "/>
<path style=" stroke:none;fill-rule:nonzero;fill:rgb(0%,0%,0%);fill-opacity:1;" d="M 41.757812 0 L 56.867188 0 L 56.867188 5.488281 L 48.078125 5.488281 L 48.078125 6.585938 L 56.867188 6.585938 L 56.867188 19.203125 L 41.757812 19.203125 L 41.757812 13.441406 L 50.550781 13.441406 L 50.550781 12.34375 L 41.757812 12.34375 Z M 41.757812 0 "/>
<path style=" stroke:none;fill-rule:nonzero;fill:rgb(0%,0%,0%);fill-opacity:1;" d="M 59.890625 0 L 75 0 L 75 5.488281 L 66.210938 5.488281 L 66.210938 6.585938 L 75 6.585938 L 75 19.203125 L 59.890625 19.203125 L 59.890625 13.441406 L 68.679688 13.441406 L 68.679688 12.34375 L 59.890625 12.34375 Z M 59.890625 0 "/>
<path style=" stroke:none;fill-rule:nonzero;fill:rgb(100%,100%,100%);fill-opacity:1;" d="M 78.957031 73.574219 L 81.207031 48.359375 L 49.957031 48.359375 L 49.957031 60.816406 L 67.535156 60.816406 L 66.398438 73.574219 L 49.957031 73.574219 L 49.957031 86.03125 L 65.320312 86.03125 L 63.871094 102.183594 L 49.957031 105.9375 L 49.957031 118.894531 L 75.53125 111.816406 L 75.71875 109.710938 L 78.652344 76.917969 Z M 78.957031 73.574219 "/>
</g>
</svg>
