<?xml version="1.0" encoding="UTF-8"?>
<svg xmlns="http://www.w3.org/2000/svg" xmlns:xlink="http://www.w3.org/1999/xlink" width="100pt" height="141pt" viewBox="0 0 100 141" version="1.1">
<g id="surface1">
<path style=" stroke:none;fill-rule:nonzero;fill:rgb(89.411765%,30.196078%,14.901961%);fill-opacity:1;" d="M 99.828125 27.601562 L 90.746094 129.148438 L 49.9375 140.445312 L 9.242188 129.164062 L 0.171875 27.601562 Z M 99.828125 27.601562 "/>
<path style=" stroke:none;fill-rule:nonzero;fill:rgb(94.509804%,39.607843%,16.078431%);fill-opacity:1;" d="M 50 131.808594 L 82.976562 122.679688 L 90.734375 35.90625 L 50 35.90625 Z M 50 131.808594 "/>
<path style=" stroke:none;fill-rule:nonzero;fill:rgb(92.156863%,92.156863%,92.156863%);fill-opacity:1;" d="M 32.351562 60.816406 L 50 60.816406 L 50 48.359375 L 18.71875 48.359375 L 19.015625 51.703125 L 22.082031 86.03125 L 50 86.03125 L 50 73.574219 L 33.492188 73.574219 Z M 32.351562 60.816406 "/>
<path style=" stroke:none;fill-rule:nonzero;fill:rgb(92.156863%,92.156863%,92.156863%);fill-opacity:1;" d="M 35.164062 92.257812 L 22.640625 92.257812 L 24.386719 111.816406 L 49.941406 118.898438 L 50 118.882812 L 50 105.925781 L 49.945312 105.941406 L 36.050781 102.191406 Z M 35.164062 92.257812 "/>
<path style=" stroke:none;fill-rule:nonzero;fill:rgb(0%,0%,0%);fill-opacity:1;" d="M 9.445312 0 L 15.785156 0 L 15.785156 6.253906 L 21.585938 6.253906 L 21.585938 0 L 27.925781 0 L 27.925781 18.9375 L 21.585938 18.9375 L 21.585938 12.597656 L 15.785156 12.597656 L 15.785156 18.9375 L 9.445312 18.9375 Z M 9.445312 0 "/>
<path style=" stroke:none;fill-rule:nonzero;fill:rgb(0%,0%,0%);fill-opacity:1;" d="M 36.261719 6.28125 L 30.679688 6.28125 L 30.679688 0 L 48.1875 0 L 48.1875 6.28125 L 42.601562 6.28125 L 42.601562 18.9375 L 36.261719 18.9375 Z M 36.261719 6.28125 "/>
<path style=" stroke:none;fill-rule:nonzero;fill:rgb(0%,0%,0%);fill-opacity:1;" d="M 50.964844 0 L 57.574219 0 L 61.640625 6.65625 L 65.703125 0 L 72.316406 0 L 72.316406 18.9375 L 66.003906 18.9375 L 66.003906 9.554688 L 61.640625 16.285156 L 61.53125 16.285156 L 57.167969 9.554688 L 57.167969 18.9375 L 50.964844 18.9375 Z M 50.964844 0 "/>
<path style=" stroke:none;fill-rule:nonzero;fill:rgb(0%,0%,0%);fill-opacity:1;" d="M 75.472656 0 L 81.8125 0 L 81.8125 12.679688 L 90.730469 12.679688 L 90.730469 18.9375 L 75.472656 18.9375 Z M 75.472656 0 "/>
<path style=" stroke:none;fill-rule:nonzero;fill:rgb(100%,100%,100%);fill-opacity:1;" d="M 49.957031 86.03125 L 65.320312 86.03125 L 63.871094 102.183594 L 49.957031 105.9375 L 49.957031 118.894531 L 75.53125 111.816406 L 75.71875 109.710938 L 78.652344 76.917969 L 78.957031 73.574219 L 49.957031 73.574219 Z M 49.957031 86.03125 "/>
<path style=" stroke:none;fill-rule:nonzero;fill:rgb(100%,100%,100%);fill-opacity:1;" d="M 49.957031 60.789062 L 49.957031 60.816406 L 80.089844 60.816406 L 80.339844 58.019531 L 80.910156 51.703125 L 81.207031 48.359375 L 49.957031 48.359375 Z M 49.957031 60.789062 "/>
</g>
</svg>
