<?xml version="1.0" encoding="UTF-8"?>
<svg xmlns="http://www.w3.org/2000/svg" xmlns:xlink="http://www.w3.org/1999/xlink" width="149pt" height="141pt" viewBox="0 0 149 141" version="1.1">
<g id="surface1">
<path style=" stroke:none;fill-rule:nonzero;fill:rgb(3.137255%,40.784314%,67.45098%);fill-opacity:1;" d="M 38.167969 25.945312 C 30.730469 36.863281 31.664062 51.0625 37.324219 62.644531 L 37.746094 63.472656 L 38.023438 63.992188 C 38.078125 64.097656 38.140625 64.199219 38.191406 64.296875 C 38.292969 64.484375 38.390625 64.660156 38.472656 64.839844 L 39.019531 65.789062 L 39.328125 66.308594 L 39.957031 67.3125 L 40.234375 67.738281 C 40.519531 68.1875 40.835938 68.636719 41.148438 69.082031 C 41.15625 69.09375 41.167969 69.105469 41.171875 69.117188 C 41.226562 69.1875 41.277344 69.257812 41.3125 69.324219 C 41.585938 69.710938 41.878906 70.085938 42.164062 70.457031 L 42.476562 70.867188 L 43.238281 71.828125 L 43.535156 72.183594 C 43.886719 72.605469 44.238281 73.023438 44.605469 73.433594 L 44.625 73.457031 C 44.640625 73.472656 44.652344 73.484375 44.664062 73.503906 C 45.019531 73.898438 45.386719 74.292969 45.753906 74.675781 L 46.101562 75.03125 L 46.976562 75.902344 L 47.332031 76.246094 C 47.722656 76.621094 48.117188 76.992188 48.519531 77.355469 L 48.746094 77.554688 L 49.820312 78.480469 L 50.269531 78.847656 L 51.171875 79.554688 L 51.65625 79.925781 L 53.035156 80.9375 C 53.070312 80.960938 53.097656 80.984375 53.132812 81.007812 C 53.453125 81.234375 53.785156 81.449219 54.117188 81.671875 L 54.535156 81.964844 L 56.078125 82.921875 L 56.503906 83.164062 L 57.65625 83.824219 C 57.867188 83.941406 58.085938 84.050781 58.296875 84.164062 L 59.121094 84.589844 L 59.308594 84.683594 L 59.648438 84.847656 L 60.960938 85.464844 L 61.234375 85.605469 C 61.742188 85.832031 62.25 86.046875 62.761719 86.253906 L 63.132812 86.402344 L 64.578125 86.945312 L 64.757812 87.011719 C 65.285156 87.203125 65.820312 87.378906 66.363281 87.546875 L 66.746094 87.667969 C 67.3125 87.832031 67.839844 88.039062 68.40625 88.148438 C 104.382812 94.859375 114.835938 66.089844 114.835938 66.089844 C 106.058594 77.761719 90.476562 80.84375 75.714844 77.414062 C 75.15625 77.273438 74.617188 77.109375 74.070312 76.945312 L 73.660156 76.800781 C 73.125 76.636719 72.597656 76.457031 72.074219 76.273438 L 71.859375 76.191406 C 71.386719 76.023438 70.921875 75.847656 70.453125 75.664062 L 70.066406 75.511719 C 69.554688 75.300781 69.050781 75.089844 68.550781 74.867188 L 68.25 74.730469 L 66.980469 74.121094 L 66.613281 73.945312 C 66.28125 73.777344 65.957031 73.609375 65.628906 73.433594 L 64.964844 73.078125 C 64.570312 72.863281 64.175781 72.632812 63.789062 72.402344 L 63.390625 72.171875 C 62.871094 71.863281 62.359375 71.542969 61.851562 71.214844 C 61.710938 71.125 61.578125 71.03125 61.4375 70.9375 L 60.34375 70.191406 L 59.988281 69.9375 L 58.953125 69.175781 L 58.492188 68.824219 L 57.5625 68.078125 L 57.144531 67.738281 L 55.984375 66.746094 C 55.945312 66.710938 55.898438 66.675781 55.847656 66.640625 C 55.433594 66.269531 55.023438 65.890625 54.625 65.503906 L 54.28125 65.167969 L 53.402344 64.289062 L 53.058594 63.933594 C 52.691406 63.554688 52.332031 63.164062 51.976562 62.773438 C 51.964844 62.757812 51.941406 62.734375 51.921875 62.714844 C 51.550781 62.300781 51.191406 61.875 50.835938 61.449219 L 50.542969 61.097656 L 49.757812 60.109375 L 49.46875 59.738281 L 48.558594 58.503906 C 40.363281 47.089844 37.4375 31.355469 43.964844 18.425781 M 61.265625 16.746094 C 55.886719 24.652344 56.175781 35.230469 60.375 43.589844 C 61.078125 44.996094 61.871094 46.351562 62.753906 47.644531 C 63.558594 48.824219 64.453125 50.230469 65.523438 51.175781 C 65.910156 51.601562 66.316406 52.019531 66.730469 52.453125 C 66.835938 52.5625 66.945312 52.664062 67.050781 52.773438 C 67.453125 53.175781 67.863281 53.566406 68.285156 53.945312 C 68.300781 53.957031 68.320312 53.976562 68.335938 53.992188 C 68.808594 54.414062 69.289062 54.820312 69.785156 55.21875 L 70.113281 55.476562 C 70.605469 55.867188 71.105469 56.238281 71.617188 56.601562 C 71.636719 56.613281 71.648438 56.625 71.660156 56.636719 C 71.886719 56.792969 72.121094 56.945312 72.347656 57.097656 C 72.457031 57.171875 72.5625 57.25 72.671875 57.320312 C 73.039062 57.558594 73.410156 57.792969 73.789062 58.019531 L 73.945312 58.113281 L 74.929688 58.671875 C 75.046875 58.742188 75.164062 58.800781 75.285156 58.859375 L 75.988281 59.226562 C 76.023438 59.242188 76.058594 59.253906 76.09375 59.273438 C 76.566406 59.511719 77.042969 59.738281 77.53125 59.957031 C 77.636719 60.003906 77.746094 60.050781 77.851562 60.097656 C 78.242188 60.257812 78.636719 60.421875 79.035156 60.585938 L 79.539062 60.773438 C 79.902344 60.90625 80.261719 61.035156 80.628906 61.15625 L 81.117188 61.316406 C 81.636719 61.484375 82.148438 61.6875 82.683594 61.777344 C 110.457031 66.480469 116.871094 44.640625 116.871094 44.640625 C 111.09375 53.140625 99.898438 57.195312 87.957031 54.035156 C 87.425781 53.894531 86.898438 53.734375 86.378906 53.566406 C 86.222656 53.515625 86.066406 53.46875 85.90625 53.425781 C 85.535156 53.304688 85.175781 53.175781 84.808594 53.035156 L 84.3125 52.847656 C 83.910156 52.710938 83.515625 52.535156 83.125 52.359375 C 83.019531 52.3125 82.917969 52.273438 82.8125 52.226562 C 82.316406 52.007812 81.832031 51.78125 81.355469 51.535156 C 81.113281 51.414062 80.875 51.285156 80.628906 51.15625 L 80.210938 50.9375 C 79.902344 50.765625 79.59375 50.589844 79.289062 50.410156 L 79.074219 50.269531 C 78.695312 50.042969 78.324219 49.808594 77.957031 49.570312 C 77.847656 49.5 77.734375 49.429688 77.625 49.34375 L 76.902344 48.859375 C 76.398438 48.496094 75.898438 48.125 75.402344 47.738281 L 75.066406 47.464844 C 69.832031 43.25 65.6875 37.492188 63.722656 30.957031 C 61.65625 24.183594 62.101562 16.582031 65.6875 10.410156 M 80.6875 9.871094 C 77.515625 14.640625 77.199219 20.5625 79.417969 25.824219 C 81.742188 31.40625 86.496094 35.789062 92.042969 37.867188 C 92.273438 37.953125 92.503906 38.03125 92.746094 38.109375 L 93.054688 38.210938 C 93.382812 38.316406 93.707031 38.4375 94.042969 38.503906 C 109.382812 41.523438 113.535156 30.46875 114.648438 28.835938 C 111 34.195312 104.875 35.480469 97.363281 33.617188 C 96.769531 33.472656 96.117188 33.25 95.535156 33.046875 C 94.796875 32.777344 94.078125 32.476562 93.375 32.128906 C 92.035156 31.472656 90.769531 30.683594 89.585938 29.769531 C 82.851562 24.5625 78.671875 14.628906 83.0625 6.535156 "/>
<path style=" stroke:none;fill-rule:nonzero;fill:rgb(7.45098%,10.588235%,15.686275%);fill-opacity:1;" d="M 46.8125 111.039062 L 45.769531 114.730469 L 46.8125 111.042969 Z M 52.160156 119.054688 L 51.015625 119.046875 Z M 51.875 124.566406 L 45.015625 124.589844 Z M 53.3125 119.058594 L 52.167969 119.054688 Z M 52.492188 124.101562 L 53.691406 119.527344 Z M 77.742188 103.054688 L 75.519531 113.550781 Z M 72.019531 103.054688 L 70.328125 110.890625 Z M 72.019531 103.054688 "/>
<path style=" stroke:none;fill-rule:nonzero;fill:rgb(7.45098%,10.588235%,15.686275%);fill-opacity:1;" d="M 77.351562 102.582031 L 72.589844 102.582031 C 72.324219 102.582031 72.0625 102.792969 72.007812 103.054688 L 68.628906 118.734375 C 68.570312 118.988281 68.308594 119.199219 68.046875 119.199219 L 64.675781 119.199219 C 61.339844 119.199219 61.722656 116.890625 62.421875 113.726562 L 62.441406 113.632812 L 62.847656 111.46875 L 63.023438 110.582031 L 64.558594 103.054688 C 64.609375 102.792969 64.441406 102.582031 64.175781 102.582031 L 59.285156 102.582031 C 59.011719 102.589844 58.773438 102.78125 58.710938 103.050781 L 56.503906 113.515625 C 55.292969 119.058594 55.617188 124.339844 62.195312 124.503906 L 62.386719 124.507812 L 72.714844 124.507812 C 72.976562 124.507812 73.238281 124.300781 73.289062 124.035156 L 77.746094 103.050781 C 77.800781 102.792969 77.632812 102.582031 77.363281 102.582031 Z M 96.335938 119.257812 C 96.605469 119.257812 96.761719 119.46875 96.722656 119.730469 L 96.261719 121.996094 M 95.800781 124.265625 L 96.261719 121.996094 Z M 95.21875 124.742188 L 86.449219 124.785156 Z M 95.21875 124.742188 "/>
<path style=" stroke:none;fill-rule:nonzero;fill:rgb(7.45098%,10.588235%,15.686275%);fill-opacity:1;" d="M 83.601562 116.339844 C 83.601562 116.097656 83.882812 115.664062 84.148438 115.664062 L 83.554688 115.660156 C 83.269531 118.359375 83.601562 116.339844 83.601562 116.339844 Z M 86.878906 124.777344 L 86.792969 124.777344 Z M 96.335938 119.257812 C 96.605469 119.257812 96.761719 119.46875 96.722656 119.730469 L 96.1875 122.363281 M 89.132812 124.789062 L 89.113281 124.789062 Z M 87.96875 124.777344 L 87.898438 124.777344 Z M 87.605469 124.777344 L 87.496094 124.777344 Z M 87.265625 124.777344 L 87.164062 124.777344 Z M 87.910156 124.777344 L 87.625 124.777344 Z M 87.910156 124.777344 "/>
<path style=" stroke:none;fill-rule:nonzero;fill:rgb(7.45098%,10.588235%,15.686275%);fill-opacity:1;" d="M 89.113281 124.789062 L 87.96875 124.789062 Z M 95.21875 124.753906 L 89.132812 124.789062 Z M 95.789062 124.265625 L 96.175781 122.363281 Z M 87.484375 124.777344 L 87.265625 124.777344 L 87.515625 124.777344 Z M 86.785156 124.777344 L 86.449219 124.777344 Z M 87.148438 124.777344 L 86.867188 124.777344 Z M 17.5 116.398438 L 18.242188 113.113281 L 17.390625 116.867188 L 17.296875 117.339844 Z M 26.355469 102.53125 L 21.121094 102.53125 C 20.847656 102.542969 20.609375 102.730469 20.535156 102.996094 L 19.542969 107.375 C 19.507812 107.488281 19.53125 107.613281 19.609375 107.707031 C 19.683594 107.800781 19.800781 107.851562 19.917969 107.847656 L 25.191406 107.847656 C 25.453125 107.847656 25.714844 107.636719 25.773438 107.375 L 26.726562 102.992188 C 26.785156 102.730469 26.617188 102.519531 26.347656 102.519531 Z M 25.214844 109.824219 L 23.664062 116.9375 Z M 10.023438 133.390625 L 14.335938 133.425781 C 13.066406 133.425781 10.964844 133.402344 10.023438 133.390625 Z M 10.023438 133.390625 "/>
<path style=" stroke:none;fill-rule:nonzero;fill:rgb(7.45098%,10.588235%,15.686275%);fill-opacity:1;" d="M 18.960938 109.824219 L 18.222656 113.109375 Z M 24.835938 109.351562 L 19.566406 109.351562 C 19.289062 109.363281 19.050781 109.554688 18.980469 109.824219 L 17.5 116.398438 L 17.296875 117.339844 L 15.890625 124.046875 C 15.820312 124.363281 15.730469 124.671875 15.632812 124.976562 C 15.632812 124.976562 14.644531 127.917969 12.992188 127.882812 L 11.355469 127.847656 C 11.074219 127.859375 10.835938 128.046875 10.761719 128.3125 L 9.671875 132.917969 C 9.636719 133.027344 9.660156 133.15625 9.730469 133.25 C 9.800781 133.34375 9.917969 133.394531 10.039062 133.390625 L 14.351562 133.425781 C 18.484375 133.425781 20.664062 131.125 22.066406 124.519531 L 25.230469 109.839844 C 25.289062 109.585938 25.113281 109.375 24.851562 109.375 Z M 99.703125 124.507812 C 99.433594 124.507812 99.277344 124.300781 99.316406 124.042969 L 103.28125 105.429688 M 105.207031 124.042969 L 106.8125 116.097656 Z M 105.207031 124.042969 "/>
<path style=" stroke:none;fill-rule:nonzero;fill:rgb(7.45098%,10.588235%,15.686275%);fill-opacity:1;" d="M 99.375 124.277344 C 99.339844 124.148438 99.363281 123.832031 99.417969 123.570312 L 101.296875 114.730469 L 99.316406 124.042969 C 99.257812 124.300781 99.433594 124.507812 99.695312 124.507812 L 100.179688 124.507812 C 99.910156 124.507812 99.410156 124.402344 99.375 124.277344 Z M 104.894531 124.402344 C 104.753906 124.460938 104.417969 124.507812 104.15625 124.507812 L 104.636719 124.507812 C 104.910156 124.503906 105.148438 124.3125 105.214844 124.042969 L 105.308594 123.570312 C 105.253906 123.828125 105.027344 124.347656 104.882812 124.402344 Z M 106.011719 120.070312 L 106.714844 116.5625 Z M 121.648438 106.671875 L 121.871094 107.578125 C 121.929688 107.835938 121.761719 108.042969 121.5 108.042969 "/>
<path style=" stroke:none;fill-rule:nonzero;fill:rgb(7.45098%,10.588235%,15.686275%);fill-opacity:1;" d="M 105.300781 123.570312 L 106.011719 120.070312 Z M 121.433594 105.734375 L 121.648438 106.65625 Z M 106.714844 116.5625 L 106.914062 115.625 L 107.671875 112.070312 L 106.8125 116.097656 Z M 103.34375 105.121094 L 103.183594 105.898438 L 101.300781 114.730469 L 103.289062 105.429688 Z M 103.34375 105.121094 "/>
<path style=" stroke:none;fill-rule:nonzero;fill:rgb(7.45098%,10.588235%,15.686275%);fill-opacity:1;" d="M 121.871094 107.578125 L 121.65625 106.671875 L 121.332031 105.261719 C 120.898438 103.597656 119.640625 102.628906 116.917969 102.628906 L 104.359375 102.625 C 104.078125 102.628906 103.839844 102.828125 103.777344 103.097656 L 103.578125 104.019531 L 103.300781 105.40625 L 99.433594 123.550781 C 99.375 123.816406 99.359375 124.117188 99.394531 124.257812 C 99.421875 124.402344 99.933594 124.496094 100.195312 124.496094 L 104.167969 124.496094 C 104.429688 124.496094 104.765625 124.449219 104.910156 124.390625 C 105.054688 124.335938 105.265625 123.828125 105.332031 123.550781 L 106.835938 116.078125 L 108.449219 108.503906 C 108.507812 108.25 108.769531 108.039062 109.03125 108.03125 L 121.527344 108.03125 C 121.789062 108.03125 121.957031 107.816406 121.894531 107.558594 Z M 137.957031 99.398438 L 137 99.402344 L 132.992188 99.402344 C 132.703125 99.421875 132.421875 99.566406 132.242188 99.800781 L 123.402344 112.789062 C 123.25 113.007812 123.082031 112.972656 123.019531 112.71875 L 122.367188 109.859375 C 122.296875 109.589844 122.058594 109.398438 121.785156 109.386719 L 116.097656 109.386719 C 115.835938 109.386719 115.671875 109.597656 115.75 109.851562 L 118.28125 118.796875 C 118.355469 119.046875 118.363281 119.46875 118.296875 119.726562 L 117.167969 124.058594 C 117.128906 124.171875 117.152344 124.300781 117.226562 124.390625 C 117.296875 124.484375 117.414062 124.53125 117.535156 124.527344 L 123.164062 124.527344 C 123.429688 124.527344 123.699219 124.3125 123.761719 124.058594 L 124.890625 119.730469 C 124.980469 119.421875 125.121094 119.136719 125.300781 118.878906 L 139.671875 99.769531 C 139.832031 99.5625 139.746094 99.390625 139.476562 99.390625 L 137.976562 99.402344 Z M 92.789062 110.605469 C 92.753906 110.886719 92.492188 111.09375 92.222656 111.09375 L 85.011719 111.09375 C 84.765625 111.09375 84.640625 110.925781 84.675781 110.714844 L 84.6875 110.679688 L 84.714844 110.554688 C 85.417969 108.722656 86.804688 107.519531 89.441406 107.519531 C 92.410156 107.519531 92.984375 108.972656 92.789062 110.605469 Z M 90.675781 102.261719 C 81.421875 102.261719 79.226562 107.890625 77.996094 113.574219 C 76.769531 119.367188 76.875 124.785156 86.449219 124.785156 L 87.96875 124.785156 L 89.132812 124.777344 L 95.226562 124.742188 C 95.5 124.730469 95.734375 124.539062 95.800781 124.269531 L 96.722656 119.738281 C 96.78125 119.472656 96.605469 119.265625 96.335938 119.265625 L 87.734375 119.265625 C 84.3125 119.265625 83.292969 118.355469 83.667969 115.667969 L 97.425781 115.667969 C 97.652344 115.664062 97.855469 115.53125 97.933594 115.3125 C 97.949219 115.277344 97.96875 115.238281 97.96875 115.199219 C 100.011719 107.472656 99.421875 102.269531 90.675781 102.269531 Z M 46.941406 110.570312 L 46.8125 111.03125 C 46.8125 111.039062 45.769531 114.730469 45.769531 114.730469 L 44.734375 118.417969 C 44.648438 118.6875 44.402344 118.867188 44.125 118.878906 L 38.625 118.878906 C 34.449219 118.878906 33.4375 115.613281 34.449219 110.785156 C 35.46875 105.851562 37.460938 102.78125 41.5625 102.472656 C 47.171875 102.050781 48.296875 106.007812 46.941406 110.570312 Z M 50.710938 118.597656 C 50.710938 118.597656 53.300781 112.285156 53.894531 108.640625 C 54.699219 103.761719 52.265625 96.683594 42.847656 96.683594 C 33.488281 96.683594 29.425781 103.441406 27.875 110.796875 C 26.324219 118.195312 28.355469 124.683594 37.664062 124.636719 L 51.863281 124.585938 C 52.144531 124.566406 52.382812 124.382812 52.464844 124.113281 L 53.664062 119.542969 C 53.703125 119.433594 53.679688 119.304688 53.609375 119.210938 C 53.535156 119.117188 53.417969 119.066406 53.300781 119.070312 L 51.007812 119.058594 C 50.789062 119.058594 50.660156 118.914062 50.683594 118.722656 C 50.695312 118.6875 50.699219 118.652344 50.710938 118.617188 Z M 50.710938 118.597656 "/>
<path style=" stroke:none;fill-rule:nonzero;fill:rgb(7.45098%,10.588235%,15.686275%);fill-opacity:1;" d="M 97.046875 114.375 C 97.046875 114.550781 96.90625 114.691406 96.734375 114.691406 C 96.558594 114.691406 96.417969 114.550781 96.417969 114.375 C 96.417969 114.199219 96.558594 114.058594 96.734375 114.058594 C 96.90625 114.058594 97.046875 114.199219 97.046875 114.375 Z M 97.046875 114.375 "/>
</g>
</svg>
