<?xml version="1.0" encoding="UTF-8"?>
<svg xmlns="http://www.w3.org/2000/svg" xmlns:xlink="http://www.w3.org/1999/xlink" width="100pt" height="140pt" viewBox="0 0 100 140" version="1.1">
<g id="surface1">
<path style=" stroke:none;fill-rule:nonzero;fill:rgb(90.196078%,63.921569%,16.078431%);fill-opacity:1;" d="M 100 27.441406 L 0 27.441406 L 9.375 128.589844 L 49.992188 140.050781 L 90.613281 128.589844 Z M 100 27.441406 "/>
<path style=" stroke:none;fill-rule:nonzero;fill:rgb(94.509804%,74.901961%,13.333333%);fill-opacity:1;" d="M 49.992188 35.683594 L 49.992188 131.476562 L 82.90625 122.203125 L 90.914062 35.683594 Z M 49.992188 35.683594 "/>
<path style=" stroke:none;fill-rule:nonzero;fill:rgb(100%,100%,100%);fill-opacity:1;" d="M 76.175781 48.09375 L 25.574219 48.09375 L 22.050781 85.964844 L 22.125 85.726562 L 65.113281 85.726562 L 63.710938 101.75 L 49.992188 105.675781 L 36.074219 101.6875 L 35.242188 91.992188 L 22.609375 91.992188 L 24.410156 111.367188 L 49.992188 118.59375 L 75.589844 111.367188 L 79.117188 73.335938 L 33.492188 73.335938 L 34.078125 60.664062 L 65.734375 60.664062 L 66.203125 67.925781 L 78.953125 67.925781 Z M 76.175781 48.09375 "/>
<path style=" stroke:none;fill-rule:nonzero;fill:rgb(92.156863%,92.156863%,92.156863%);fill-opacity:1;" d="M 50.007812 48.09375 L 25.574219 48.09375 L 22.050781 85.964844 L 22.125 85.726562 L 50.007812 85.726562 L 50.007812 73.375 L 35.269531 73.375 L 35.855469 60.703125 L 50.007812 60.703125 Z M 35.269531 91.992188 L 22.609375 91.992188 L 24.410156 111.355469 L 49.992188 118.574219 L 49.992188 105.6875 L 36.074219 101.6875 Z M 35.269531 91.992188 "/>
<path style=" stroke:none;fill-rule:nonzero;fill:rgb(13.72549%,12.156863%,12.54902%);fill-opacity:1;" d="M 40.269531 12.527344 L 31.367188 12.527344 L 31.367188 18.882812 L 46.640625 18.882812 L 46.640625 0 L 40.269531 0 Z M 68.625 0.101562 L 53.109375 0.101562 L 53.109375 6.710938 C 55.179688 8.773438 56.261719 9.765625 59.3125 12.75 L 53.109375 12.75 L 53.109375 18.777344 L 68.625 18.777344 L 68.625 12.761719 L 62.421875 6.722656 L 68.625 6.722656 Z M 68.625 0.101562 "/>
</g>
</svg>
