<?xml version="1.0" encoding="UTF-8"?>
<svg xmlns="http://www.w3.org/2000/svg" xmlns:xlink="http://www.w3.org/1999/xlink" width="186pt" height="141pt" viewBox="0 0 186 141" version="1.1">
<g id="surface1">
<path style=" stroke:none;fill-rule:nonzero;fill:rgb(80.392157%,40.392157%,60%);fill-opacity:1;" d="M 159.726562 80.726562 C 153.265625 80.765625 147.65625 82.332031 142.953125 84.644531 C 141.234375 81.203125 139.511719 78.140625 139.203125 75.886719 C 138.859375 73.265625 138.457031 71.667969 138.859375 68.53125 C 139.269531 65.398438 141.09375 60.9375 141.058594 60.59375 C 141.027344 60.257812 140.65625 58.660156 136.933594 58.621094 C 133.210938 58.585938 130.003906 59.332031 129.632812 60.320312 C 129.265625 61.3125 128.554688 63.558594 128.078125 65.875 C 127.433594 69.28125 120.644531 81.4375 116.75 87.808594 C 115.503906 85.328125 114.417969 83.144531 114.183594 81.410156 C 113.839844 78.785156 113.4375 77.183594 113.839844 74.054688 C 114.242188 70.921875 116.074219 66.453125 116.039062 66.117188 C 116.007812 65.773438 115.632812 64.175781 111.914062 64.136719 C 108.199219 64.109375 104.984375 64.855469 104.613281 65.84375 C 104.238281 66.832031 103.835938 69.148438 103.058594 71.398438 C 102.28125 73.644531 93.253906 93.941406 90.886719 99.191406 C 89.664062 101.878906 88.625 104.027344 87.875 105.492188 C 87.875 105.492188 87.839844 105.59375 87.738281 105.761719 C 87.101562 107.023438 86.726562 107.703125 86.726562 107.703125 C 86.726562 107.703125 86.726562 107.703125 86.726562 107.738281 C 86.21875 108.65625 85.679688 109.511719 85.40625 109.511719 C 85.203125 109.511719 84.835938 107.058594 85.472656 103.71875 C 86.828125 96.671875 90.042969 85.699219 90.007812 85.328125 C 90.007812 85.121094 90.617188 83.21875 87.914062 82.230469 C 85.269531 81.234375 84.324219 82.875 84.089844 82.875 C 83.847656 82.875 83.6875 83.453125 83.6875 83.453125 C 83.6875 83.453125 86.632812 71.125 78.070312 71.125 C 72.730469 71.125 65.355469 77.015625 61.707031 82.332031 C 59.40625 83.589844 54.507812 86.28125 49.261719 89.179688 C 47.269531 90.300781 45.207031 91.421875 43.277344 92.476562 C 43.140625 92.34375 43.007812 92.167969 42.875 92.035156 C 32.527344 80.902344 13.390625 73.03125 14.203125 58.074219 C 14.5 52.625 16.363281 38.320312 50.953125 20.945312 C 79.421875 6.8125 102.078125 10.730469 105.996094 19.417969 C 111.613281 31.808594 93.859375 54.84375 64.445312 58.175781 C 53.21875 59.4375 47.335938 55.078125 45.851562 53.445312 C 44.289062 51.738281 44.054688 51.636719 43.484375 51.980469 C 42.53125 52.492188 43.140625 54.023438 43.484375 54.910156 C 44.363281 57.222656 47.980469 61.3125 54.097656 63.316406 C 59.507812 65.089844 72.664062 66.078125 88.585938 59.882812 C 106.40625 52.933594 120.335938 33.617188 116.242188 17.4375 C 112.148438 1.027344 85.109375 -4.394531 59.507812 4.769531 C 44.289062 10.21875 27.796875 18.800781 15.921875 29.976562 C 1.824219 43.257812 -0.402344 54.808594 0.503906 59.640625 C 3.785156 76.808594 27.28125 87.976562 36.6875 96.261719 C 36.210938 96.53125 35.773438 96.773438 35.398438 96.980469 C 30.703125 99.324219 12.78125 108.757812 8.320312 118.742188 C 3.253906 130.046875 9.125 138.15625 13.015625 139.25 C 25.085938 142.617188 37.492188 136.554688 44.15625 126.539062 C 50.816406 116.527344 50.011719 103.511719 46.925781 97.550781 C 46.898438 97.484375 46.859375 97.417969 46.792969 97.351562 C 48.011719 96.636719 49.261719 95.890625 50.480469 95.171875 C 52.882812 93.742188 55.246094 92.410156 57.277344 91.320312 C 56.125 94.488281 55.28125 98.269531 54.871094 103.71875 C 54.367188 110.121094 56.96875 118.433594 60.386719 121.707031 C 61.910156 123.132812 63.699219 123.171875 64.855469 123.171875 C 68.839844 123.171875 70.632812 119.832031 72.628906 115.875 C 75.058594 111.042969 77.257812 105.425781 77.257812 105.425781 C 77.257812 105.425781 74.515625 120.617188 81.957031 120.617188 C 84.660156 120.617188 87.398438 117.070312 88.625 115.269531 L 88.625 115.296875 C 88.625 115.296875 88.6875 115.195312 88.828125 114.960938 C 89.09375 114.515625 89.261719 114.242188 89.261719 114.242188 L 89.261719 114.175781 C 90.34375 112.265625 92.777344 107.945312 96.394531 100.753906 C 101.066406 91.496094 105.558594 79.90625 105.558594 79.90625 C 105.558594 79.90625 105.96875 82.734375 107.351562 87.4375 C 108.164062 90.199219 109.847656 93.230469 111.210938 96.160156 C 110.128906 97.691406 109.445312 98.539062 109.445312 98.539062 C 109.445312 98.539062 109.445312 98.539062 109.484375 98.578125 C 108.601562 99.734375 107.660156 100.992188 106.605469 102.222656 C 102.921875 106.648438 98.523438 111.722656 97.917969 113.1875 C 97.207031 114.925781 97.375 116.183594 98.730469 117.210938 C 99.703125 117.957031 101.46875 118.058594 103.265625 117.957031 C 106.574219 117.722656 108.902344 116.902344 110.054688 116.390625 C 111.847656 115.746094 113.941406 114.757812 115.90625 113.289062 C 119.523438 110.601562 121.722656 106.75 121.515625 101.675781 C 121.421875 98.882812 120.503906 96.09375 119.382812 93.464844 C 119.730469 92.988281 120.03125 92.511719 120.367188 92.035156 C 126.085938 83.628906 130.511719 74.390625 130.511719 74.390625 C 130.511719 74.390625 130.914062 77.21875 132.304688 81.921875 C 132.984375 84.300781 134.371094 86.886719 135.585938 89.414062 C 130.203125 93.808594 126.890625 98.914062 125.710938 102.253906 C 123.582031 108.457031 125.238281 111.246094 128.378906 111.890625 C 129.800781 112.199219 131.828125 111.519531 133.316406 110.875 C 135.210938 110.257812 137.4375 109.203125 139.578125 107.636719 C 143.195312 104.949219 146.675781 101.199219 146.46875 96.125 C 146.367188 93.808594 145.757812 91.523438 144.917969 89.3125 C 149.480469 87.398438 155.359375 86.351562 162.867188 87.230469 C 178.96875 89.144531 182.144531 99.257812 181.539062 103.511719 C 180.921875 107.777344 177.546875 110.089844 176.433594 110.808594 C 175.3125 111.519531 174.9375 111.761719 175.042969 112.265625 C 175.171875 113.019531 175.722656 112.984375 176.660156 112.84375 C 177.984375 112.609375 185.121094 109.410156 185.421875 101.570312 C 185.933594 91.558594 176.460938 80.625 159.726562 80.726562 Z M 35.566406 122.894531 C 30.226562 128.753906 22.792969 130.964844 19.578125 129.097656 C 16.128906 127.089844 17.484375 118.433594 24.039062 112.234375 C 28.03125 108.457031 33.171875 104.949219 36.585938 102.804688 C 37.359375 102.328125 38.511719 101.636719 39.894531 100.789062 C 40.136719 100.648438 40.269531 100.582031 40.269531 100.582031 C 40.539062 100.414062 40.808594 100.246094 41.082031 100.078125 C 43.484375 108.925781 41.183594 116.734375 35.566406 122.894531 Z M 74.449219 96.261719 C 72.589844 100.824219 68.703125 112.507812 66.34375 111.855469 C 64.308594 111.3125 63.0625 102.457031 65.933594 93.707031 C 67.390625 89.3125 70.464844 84.058594 72.253906 82.023438 C 75.160156 78.75 78.375 77.664062 79.152344 78.992188 C 80.128906 80.726562 75.601562 93.398438 74.449219 96.261719 Z M 106.539062 111.722656 C 105.761719 112.132812 105.015625 112.40625 104.683594 112.199219 C 104.445312 112.0625 105.015625 111.519531 105.015625 111.519531 C 105.015625 111.519531 109.042969 107.160156 110.632812 105.183594 C 111.539062 104.027344 112.625 102.664062 113.773438 101.132812 L 113.773438 101.570312 C 113.773438 106.789062 108.773438 110.296875 106.539062 111.722656 Z M 131.285156 106.03125 C 130.714844 105.628906 130.816406 104.269531 132.742188 100.011719 C 133.484375 98.335938 135.242188 95.542969 138.25 92.855469 C 138.597656 93.941406 138.832031 94.996094 138.800781 95.992188 C 138.765625 102.5625 134.097656 105.015625 131.285156 106.03125 Z M 131.285156 106.03125 "/>
</g>
</svg>
