<?xml version="1.0" encoding="iso-8859-1"?>
<!-- Generator: Adobe Illustrator 16.0.0, SVG Export Plug-In . SVG Version: 6.00 Build 0)  -->
<!DOCTYPE svg PUBLIC "-//W3C//DTD SVG 1.1//EN" "http://www.w3.org/Graphics/SVG/1.1/DTD/svg11.dtd">
<svg version="1.1" id="Capa_1" xmlns="http://www.w3.org/2000/svg" xmlns:xlink="http://www.w3.org/1999/xlink" x="0px" y="0px"
	 width="133.275px" height="133.275px" viewBox="0 0 133.275 133.275" style="enable-background:new 0 0 133.275 133.275;"
	 xml:space="preserve">
<g>
	<path d="M106.746,97.295c-1.292-10.446-10.837-17.908-21.278-16.611c-7.193,0.886-12.619,4.403-16.079,9.956V76.708
		c15.457-1.445,27.617-15.066,27.617-31.625V34.726c0-0.907-0.453-1.748-1.213-2.252c-0.759-0.506-1.714-0.593-2.552-0.231
		c-0.264,0.108-26.966,11.264-43.248,0.082c-1.226-0.841-2.911-0.53-3.752,0.696c-0.844,1.231-0.535,2.911,0.696,3.755
		c14.926,10.244,36.109,4.735,44.663,1.841v6.468c0,14.539-11.18,26.372-24.917,26.372S41.77,59.627,41.77,45.083V17.972
		C41.77,11.156,53.956,5.4,68.393,5.4c12.397,0,21.041,5.123,21.041,9.724c0,2.988-10.463,8.332-20.772,8.332
		c-9.45,0-15.957-2.525-16.21-3.85c0-0.145,0.211-0.767,1.118-1.619c2.22-2.096,7.045-4.213,14.056-3.868
		c4.664,0.227,8.467,1.534,10.159,3.488c0.981,1.123,2.689,1.242,3.812,0.271c1.124-0.979,1.245-2.685,0.27-3.812
		c-2.722-3.138-7.684-5.039-13.978-5.348c-7.394-0.335-14.159,1.653-18.069,5.379c-1.809,1.722-2.763,3.628-2.763,5.508
		c0,7.302,13.587,9.25,21.611,9.25c10.42,0,26.172-5.474,26.172-13.732C94.839,6.647,83.222,0,68.397,0
		C50.144,0,36.375,7.726,36.375,17.972v27.111c0,16.563,12.16,30.19,27.614,31.625v14.09c-3.444-5.643-8.915-9.218-16.177-10.114
		c-10.465-1.276-19.991,6.181-21.283,16.622c-1.031,8.606,5.104,16.464,13.674,17.492c0.546,0.068,1.092,0.1,1.624,0.1
		c2.874,0,5.651-0.949,7.955-2.742c2.737-2.136,4.482-5.215,4.91-8.658c0.351-2.88-0.432-5.717-2.215-7.995
		c-1.313-1.677-3.045-2.89-5.018-3.564c-1.898-1.445-4.562-1.393-6.294,0.321c-1.482,1.461-1.811,3.597-1.039,5.4
		c0.2,0.828,0.535,1.635,1.179,2.277c1.877,1.915,4.962,1.946,6.868,0.08c0.459-0.454,0.799-0.986,1.042-1.551
		c0.928,1.329,1.381,2.9,1.184,4.514c-0.287,2.311-1.447,4.367-3.272,5.785c-1.827,1.419-4.084,2.052-6.399,1.762
		c-6.212-0.754-10.661-6.439-9.909-12.693c0.997-8.074,8.369-13.854,16.469-12.856c10.362,1.276,16.227,8.901,16.519,21.489
		c0,0.179,0.145,0.29,0.182,0.442v23.667c0,1.487,1.21,2.7,2.7,2.7c1.492,0,2.699-1.213,2.699-2.7v-23.898
		c0.019-0.09,0.087-0.121,0.093-0.211C69.774,93.883,75.638,86.247,86,84.977c8.121-1.013,15.473,4.782,16.47,12.846
		c0.748,6.255-3.697,11.939-9.92,12.704c-2.288,0.279-4.566-0.332-6.396-1.762c-1.824-1.424-2.99-3.48-3.27-5.785
		c-0.195-1.613,0.259-3.185,1.187-4.514c0.242,0.564,0.58,1.097,1.039,1.551c1.909,1.882,4.988,1.846,6.866-0.08
		c0.643-0.653,0.985-1.46,1.181-2.277c0.771-1.804,0.443-3.939-1.039-5.4c-1.724-1.703-4.387-1.751-6.296-0.321
		c-1.962,0.675-3.702,1.893-5.016,3.564c-1.782,2.289-2.573,5.126-2.215,7.995c0.428,3.448,2.162,6.528,4.91,8.658
		c2.299,1.804,5.073,2.742,7.947,2.742c0.543,0,1.081-0.031,1.624-0.1C101.636,113.77,107.779,105.912,106.746,97.295z"/>
</g>
<g>
</g>
<g>
</g>
<g>
</g>
<g>
</g>
<g>
</g>
<g>
</g>
<g>
</g>
<g>
</g>
<g>
</g>
<g>
</g>
<g>
</g>
<g>
</g>
<g>
</g>
<g>
</g>
<g>
</g>
</svg>
